<?xml version="1.0" encoding="utf-8"?>
<!-- Generator: Adobe Illustrator 22.0.1, SVG Export Plug-In . SVG Version: 6.00 Build 0)  -->
<svg version="1.1" id="Layer_1" xmlns="http://www.w3.org/2000/svg" xmlns:xlink="http://www.w3.org/1999/xlink" x="0px" y="0px"
	 viewBox="0 0 320 340" style="enable-background:new 0 0 320 340;" xml:space="preserve">
<style type="text/css">
	.st0{fill:#BC0A3F;}
	.st1{fill:#C60000;stroke:#000000;stroke-width:1.1522;stroke-miterlimit:10;}
	.st2{fill:none;stroke:#000000;stroke-width:1.1522;stroke-miterlimit:10;}
	.st3{fill:#C60000;stroke:#000000;stroke-width:1.2841;stroke-miterlimit:10;}
</style>
<g>
	<circle cx="160" cy="177.4" r="132.5"/>
	<g>
		<g>
			<g>
				<path class="st0" d="M296.8,187.7l4.7,0.3c0.1-1.7,0.3-3.3,0.3-5l-4.7-0.2C297.1,184.4,296.9,186,296.8,187.7z"/>
				<path class="st0" d="M294.9,202.1l4.6,0.8c0.3-1.7,0.6-3.3,0.8-5l-4.6-0.7C295.5,198.9,295.2,200.5,294.9,202.1z"/>
				<path class="st0" d="M282.7,186.6l4.7,0.3c0.1-1.5,0.3-3,0.3-4.5l-4.7-0.2C283,183.7,282.8,185.2,282.7,186.6z"/>
				<path class="st0" d="M281.1,199.6l4.6,0.8c0.2-1.5,0.6-3,0.8-4.5l-4.6-0.7C281.6,196.7,281.3,198.2,281.1,199.6z"/>
			</g>
			<g>
				<polygon class="st0" points="291.4,216.8 295.9,218.2 297.3,213.3 292.7,212.2 				"/>
				<polygon class="st0" points="286.5,230.6 290.8,232.4 292.7,227.7 288.3,226 				"/>
				<polygon class="st0" points="277.9,212.8 282.4,214.1 283.7,209.8 279.1,208.6 				"/>
				<polygon class="st0" points="273.5,225.1 277.8,226.9 279.5,222.7 275.1,221 				"/>
			</g>
			<g>
				<path class="st0" d="M279.8,244.2l4.1,2.3c0.9-1.4,1.6-2.9,2.4-4.4l-4.2-2.1C281.4,241.3,280.7,242.8,279.8,244.2z"/>
				<path class="st0" d="M272.1,256.5l3.8,2.7c1-1.4,2-2.7,2.8-4.1l-3.9-2.6C274,253.8,273,255.2,272.1,256.5z"/>
				<path class="st0" d="M267.5,237.3l4.1,2.3c0.8-1.3,1.4-2.7,2.1-4l-4.2-2.1C268.9,234.7,268.3,236,267.5,237.3z"/>
				<path class="st0" d="M260.6,248.3l3.8,2.7c0.9-1.2,1.8-2.5,2.6-3.7l-3.9-2.6C262.3,246,261.4,247.2,260.6,248.3z"/>
			</g>
			<g>
				<polygon class="st0" points="262.7,268.3 266.2,271.5 269.5,267.7 265.9,264.7 				"/>
				<polygon class="st0" points="252.5,278.7 255.6,282.2 259.3,278.7 256,275.4 				"/>
				<polygon class="st0" points="252.1,259 255.6,262.1 258.6,258.7 255,255.7 				"/>
				<polygon class="st0" points="243,268.3 246.1,271.8 249.4,268.7 246.1,265.3 				"/>
			</g>
			<g>
				<path class="st0" d="M240.7,288.3l2.8,3.8c1.4-0.9,2.7-2,4-3l-2.9-3.7C243.3,286.3,242.1,287.4,240.7,288.3z"/>
				<path class="st0" d="M228.5,296.2l2.3,4.1c1.5-0.8,2.9-1.7,4.3-2.6l-2.5-4C231.3,294.6,229.9,295.4,228.5,296.2z"/>
				<path class="st0" d="M232.4,276.9l2.8,3.8c1.3-0.8,2.4-1.8,3.6-2.7l-2.9-3.7C234.8,275.2,233.6,276.1,232.4,276.9z"/>
				<path class="st0" d="M221.5,284l2.3,4.1c1.3-0.8,2.6-1.5,3.9-2.3l-2.5-4C224,282.6,222.7,283.3,221.5,284z"/>
			</g>
			<g>
				<polygon class="st0" points="215,303.1 216.9,307.4 221.5,305.3 219.4,301.1 				"/>
				<polygon class="st0" points="201.4,308.2 202.8,312.7 207.5,311.1 206,306.7 				"/>
				<polygon class="st0" points="209.4,290.2 211.2,294.5 215.4,292.6 213.3,288.4 				"/>
				<polygon class="st0" points="197.1,294.8 198.5,299.3 202.8,297.8 201.3,293.4 				"/>
			</g>
			<g>
				<path class="st0" d="M186.7,312l0.9,4.6c1.7-0.3,3.3-0.7,4.9-1.1l-1.1-4.6C189.9,311.3,188.3,311.7,186.7,312z"/>
				<path class="st0" d="M172.3,314l0.4,4.7c1.7-0.1,3.3-0.3,5-0.5l-0.6-4.7C175.5,313.7,173.9,313.9,172.3,314z"/>
				<path class="st0" d="M184,298.1l0.9,4.6c1.5-0.2,2.9-0.7,4.4-1l-1.1-4.6C186.8,297.5,185.4,297.9,184,298.1z"/>
				<path class="st0" d="M171,300l0.4,4.7c1.5-0.1,3-0.3,4.5-0.5l-0.6-4.7C173.9,299.7,172.5,299.9,171,300z"/>
			</g>
			<g>
				<path class="st0" d="M157.1,314.5l-0.1,4.7c1.7,0,3.3,0.1,5,0l-0.1-4.7C160.4,314.6,158.8,314.6,157.1,314.5z"/>
				<path class="st0" d="M142.6,313.4l-0.6,4.7c1.7,0.2,3.3,0.5,5,0.6l0.4-4.7C145.8,313.9,144.2,313.6,142.6,313.4z"/>
				<path class="st0" d="M157.4,300.4l-0.1,4.7c1.5,0,3,0.1,4.5,0l-0.1-4.7C160.3,300.5,158.9,300.5,157.4,300.4z"/>
				<path class="st0" d="M144.4,299.5l-0.6,4.7c1.5,0.2,3,0.4,4.5,0.5l0.4-4.7C147.3,299.9,145.8,299.6,144.4,299.5z"/>
			</g>
			<g>
				<polygon class="st0" points="127.7,310.7 126.6,315.3 131.5,316.4 132.5,311.8 				"/>
				<polygon class="st0" points="113.8,306.6 112.2,311 116.9,312.6 118.4,308.1 				"/>
				<polygon class="st0" points="131,297 129.9,301.6 134.3,302.6 135.3,298 				"/>
				<polygon class="st0" points="118.5,293.3 116.9,297.7 121.2,299.2 122.6,294.7 				"/>
			</g>
			<g>
				<path class="st0" d="M99.8,300.7l-2.1,4.2c1.5,0.8,3,1.4,4.6,2.1l1.9-4.3C102.8,302,101.3,301.4,99.8,300.7z"/>
				<path class="st0" d="M87.1,293.6l-2.5,4c0.7,0.4,1.4,0.9,2.1,1.3l2.2,1.3l2.4-4.1l-2.1-1.2C88.4,294.5,87.8,294,87.1,293.6z"/>
				<path class="st0" d="M106,288l-2.1,4.2c1.3,0.7,2.7,1.3,4.1,1.9l1.9-4.3C108.6,289.2,107.3,288.7,106,288z"/>
				<path class="st0" d="M94.6,281.7l-2.5,4c0.6,0.4,1.3,0.8,1.9,1.2l2,1.1l2.4-4.1l-1.9-1.1C95.8,282.5,95.2,282,94.6,281.7z"/>
			</g>
			<g>
				<path class="st0" d="M74.7,284.8l-2.9,3.7c1.3,1,2.6,2.1,4,3.1l2.8-3.8C77.3,286.9,76,285.8,74.7,284.8z"/>
				<polygon class="st0" points="63.8,275.2 60.5,278.5 64.2,282 67.3,278.5 				"/>
				<path class="st0" d="M83.5,273.8l-2.9,3.7c1.2,0.9,2.4,1.9,3.6,2.8l2.8-3.8C85.8,275.6,84.7,274.7,83.5,273.8z"/>
				<polygon class="st0" points="73.7,265.1 70.4,268.5 73.7,271.6 76.8,268.2 				"/>
			</g>
			<g>
				<path class="st0" d="M53.6,264l-3.6,3c1,1.3,2.2,2.5,3.3,3.8l3.5-3.1C55.7,266.5,54.6,265.3,53.6,264z"/>
				<path class="st0" d="M45,252.2l-3.9,2.6c0.5,0.7,0.9,1.4,1.4,2.1l1.5,2l3.8-2.7l-1.4-2C45.9,253.6,45.5,252.9,45,252.2z"/>
				<path class="st0" d="M64.5,255.1l-3.6,3c0.9,1.2,2,2.3,2.9,3.4l3.5-3.1C66.4,257.3,65.4,256.2,64.5,255.1z"/>
				<path class="st0" d="M56.8,244.5l-3.9,2.6c0.4,0.6,0.8,1.3,1.2,1.9l1.3,1.8l3.8-2.7l-1.3-1.8C57.6,245.8,57.2,245.1,56.8,244.5z
					"/>
			</g>
			<g>
				<path class="st0" d="M37.5,239.1l-4.2,2.1c0.8,1.5,1.5,3,2.3,4.5l4.1-2.3C38.9,242,38.2,240.5,37.5,239.1z"/>
				<polygon class="st0" points="31.6,225.8 27.2,227.4 29.1,232.1 33.4,230.3 				"/>
				<path class="st0" d="M50.1,232.8l-4.2,2.1c0.7,1.3,1.3,2.7,2.1,4l4.1-2.3C51.4,235.4,50.7,234,50.1,232.8z"/>
				<polygon class="st0" points="44.8,220.8 40.4,222.5 42.1,226.7 46.4,224.9 				"/>
			</g>
			<g>
				<path class="st0" d="M27,211.3l-4.5,1.2c0.4,1.6,0.9,3.2,1.4,4.8l4.5-1.3C27.9,214.5,27.5,212.9,27,211.3z"/>
				<path class="st0" d="M24.2,197l-4.6,0.7c0.2,1.7,0.5,3.3,0.8,5l4.6-0.8C24.8,200.2,24.4,198.6,24.2,197z"/>
				<path class="st0" d="M40.7,207.9l-4.5,1.2c0.4,1.5,0.8,2.9,1.2,4.4l4.5-1.3C41.5,210.7,41.1,209.3,40.7,207.9z"/>
				<path class="st0" d="M38.2,195l-4.6,0.7c0.2,1.5,0.5,3,0.7,4.5l4.6-0.8C38.6,197.9,38.3,196.5,38.2,195z"/>
			</g>
			<g>
				<polygon class="st0" points="22.9,182 18.2,182.1 18.3,184.6 18.5,187.1 23.2,186.8 23,184.4 				"/>
				<path class="st0" d="M23.2,167.4l-4.7-0.3c-0.1,1.7-0.3,3.3-0.3,5l4.7,0.2C22.9,170.6,23.1,169,23.2,167.4z"/>
				<polygon class="st0" points="37,181.5 32.3,181.6 32.4,183.9 32.5,186.2 37.2,185.9 37,183.7 				"/>
				<path class="st0" d="M37.3,168.4l-4.7-0.3c-0.1,1.5-0.2,3-0.3,4.5l4.7,0.2C37,171.3,37.1,169.9,37.3,168.4z"/>
			</g>
			<g>
				<path class="st0" d="M25.1,152.4l-4.6-0.9c-0.3,1.7-0.6,3.3-0.8,5l4.6,0.7C24.5,155.6,24.8,154,25.1,152.4z"/>
				<polygon class="st0" points="28.5,138.2 24,136.9 22.6,141.7 27.2,142.9 				"/>
				<path class="st0" d="M39,154.9l-4.6-0.9c-0.3,1.5-0.6,3-0.8,4.5l4.6,0.7C38.4,157.8,38.7,156.4,39,154.9z"/>
				<polygon class="st0" points="42,142.2 37.5,140.9 36.3,145.2 40.8,146.4 				"/>
			</g>
			<g>
				<polygon class="st0" points="33.6,123.9 29.3,122.1 27.4,126.8 31.8,128.5 				"/>
				<path class="st0" d="M40,110.9l-4.1-2.3c-0.9,1.4-1.6,3-2.3,4.4l4.2,2.1C38.5,113.7,39.2,112.2,40,110.9z"/>
				<polygon class="st0" points="46.6,129.4 42.2,127.6 40.6,131.8 45,133.5 				"/>
				<path class="st0" d="M52.3,117.7l-4.1-2.3c-0.8,1.3-1.4,2.7-2.1,4l4.2,2.1C51,120.3,51.6,118.9,52.3,117.7z"/>
			</g>
			<g>
				<path class="st0" d="M48.1,98.1l-3.8-2.7c-1,1.4-2,2.7-2.8,4.1l3.9,2.6C46.2,100.7,47.2,99.4,48.1,98.1z"/>
				<path class="st0" d="M57.1,86.6l-3.5-3.1c-1.1,1.3-2.2,2.5-3.3,3.8l3.6,3C55,89.1,56.1,87.9,57.1,86.6z"/>
				<path class="st0" d="M59.6,106.2l-3.8-2.7c-0.9,1.2-1.8,2.4-2.6,3.7l3.9,2.6C57.9,108.6,58.7,107.4,59.6,106.2z"/>
				<polygon class="st0" points="67.7,96 64.2,92.9 61.2,96.3 64.8,99.3 				"/>
			</g>
			<g>
				<polygon class="st0" points="67.7,75.8 64.6,72.4 60.9,75.8 64.2,79.2 				"/>
				<path class="st0" d="M79,66.6l-2.8-3.8c-1.4,0.9-2.7,2-4,3l2.9,3.7C76.5,68.6,77.7,67.6,79,66.6z"/>
				<polygon class="st0" points="77.2,86.3 74.1,82.8 70.8,85.9 74.1,89.3 				"/>
				<path class="st0" d="M87.4,78l-2.8-3.8C83.3,75.1,82.2,76,81,77l2.9,3.7C85.1,79.8,86.2,78.8,87.4,78z"/>
			</g>
			<g>
				<path class="st0" d="M91.7,58.4l-2.3-4.1c-1.4,0.8-2.9,1.6-4.3,2.6l2.5,4C88.9,60,90.3,59.2,91.7,58.4z"/>
				<polygon class="st0" points="104.7,51.8 102.8,47.5 98.3,49.6 100.3,53.8 				"/>
				<path class="st0" d="M98.8,70.6l-2.3-4.1c-1.3,0.8-2.6,1.5-3.9,2.3l2.5,4C96.2,72,97.5,71.3,98.8,70.6z"/>
				<polygon class="st0" points="110.4,64.7 108.5,60.4 104.4,62.3 106.4,66.5 				"/>
			</g>
			<g>
				<polygon class="st0" points="118.9,46.5 117.5,42 112.7,43.6 114.3,48 				"/>
				<path class="st0" d="M133,42.9l-0.9-4.6c-1.6,0.3-3.3,0.7-4.9,1.1l1.1,4.6C129.9,43.6,131.4,43.2,133,42.9z"/>
				<polygon class="st0" points="123.1,59.9 121.7,55.4 117.4,56.9 119,61.3 				"/>
				<path class="st0" d="M135.8,56.7l-0.9-4.6c-1.5,0.3-2.9,0.7-4.4,1l1.1,4.6C132.9,57.3,134.4,56.9,135.8,56.7z"/>
			</g>
			<g>
				<path class="st0" d="M148,40.7l-0.4-4.7c-0.8,0.1-1.7,0.1-2.5,0.2l-2.5,0.3l0.6,4.7l2.4-0.3C146.4,40.8,147.2,40.8,148,40.7z"/>
				<polygon class="st0" points="162.6,40.3 162.7,35.6 160.1,35.5 157.6,35.6 157.7,40.2 160.1,40.2 				"/>
				<path class="st0" d="M149.2,54.8l-0.4-4.7c-0.8,0.1-1.5,0.1-2.3,0.2l-2.2,0.3l0.6,4.7l2.2-0.3C147.8,54.9,148.5,54.8,149.2,54.8
					z"/>
				<polygon class="st0" points="162.3,54.3 162.4,49.6 160.1,49.6 157.9,49.6 157.9,54.3 160.1,54.3 				"/>
			</g>
			<g>
				<path class="st0" d="M177.7,41.4l0.6-4.7c-1.7-0.2-3.3-0.5-5-0.6l-0.4,4.7C174.5,40.9,176.1,41.2,177.7,41.4z"/>
				<path class="st0" d="M192,44l1.1-4.6c-1.6-0.4-3.3-0.8-4.9-1.1l-0.9,4.6C188.8,43.2,190.4,43.6,192,44z"/>
				<path class="st0" d="M175.9,55.3l0.6-4.7c-1.5-0.2-3-0.4-4.5-0.5l-0.4,4.7C173,54.9,174.4,55.2,175.9,55.3z"/>
				<path class="st0" d="M188.7,57.7l1.1-4.6c-1.5-0.3-2.9-0.7-4.4-1l-0.9,4.6C185.9,57,187.3,57.4,188.7,57.7z"/>
			</g>
			<g>
				<polygon class="st0" points="206.5,48.3 208.1,43.9 203.3,42.3 201.9,46.7 				"/>
				<path class="st0" d="M219.9,54l2.1-4.2c-1.5-0.7-3-1.4-4.6-2.1l-1.9,4.3C217,52.6,218.5,53.2,219.9,54z"/>
				<polygon class="st0" points="201.7,61.5 203.3,57.1 199,55.7 197.6,60.1 				"/>
				<path class="st0" d="M213.8,66.6l2.1-4.2c-1.4-0.7-2.7-1.3-4.1-1.9l-1.9,4.3C211.1,65.4,212.5,66,213.8,66.6z"/>
			</g>
			<g>
				<polygon class="st0" points="233.2,61.3 235.7,57.4 233.5,56 231.4,54.8 229,58.8 231.1,60 				"/>
				<path class="st0" d="M245,69.8l2.9-3.7c-1.3-1-2.6-2.1-4-3.1l-2.8,3.8C242.5,67.7,243.8,68.8,245,69.8z"/>
				<polygon class="st0" points="225.6,73.2 228.1,69.3 226.2,68.1 224.3,66.9 221.9,71 223.8,72.1 				"/>
				<path class="st0" d="M236.3,80.8l2.9-3.7c-1.2-0.9-2.3-1.9-3.6-2.8l-2.8,3.8C234,79,235.1,79.9,236.3,80.8z"/>
			</g>
			<g>
				<polygon class="st0" points="256.4,79.8 259.7,76.4 256,73 252.9,76.4 				"/>
				<path class="st0" d="M266.2,90.5l3.6-3c-1.1-1.3-2.2-2.5-3.3-3.8l-3.5,3.1C264.1,88.1,265.2,89.3,266.2,90.5z"/>
				<polygon class="st0" points="246.5,89.8 249.8,86.5 246.5,83.3 243.3,86.8 				"/>
				<path class="st0" d="M255.3,99.5l3.6-3c-1-1.2-2-2.3-2.9-3.4l-3.5,3.1C253.4,97.3,254.4,98.3,255.3,99.5z"/>
			</g>
			<g>
				<polygon class="st0" points="275.1,102.8 279,100.2 277.7,98.1 276.2,96.1 272.4,98.8 273.8,100.7 				"/>
				<path class="st0" d="M282.4,115.4l4.2-2.1c-0.8-1.5-1.5-3-2.3-4.4l-4.1,2.3C281,112.5,281.6,114,282.4,115.4z"/>
				<polygon class="st0" points="263.3,110.5 267.2,107.9 266,106 264.7,104.1 260.9,106.8 262.1,108.6 				"/>
				<path class="st0" d="M269.8,121.8l4.2-2.1c-0.7-1.3-1.3-2.7-2.1-4l-4.1,2.3C268.5,119.2,269.1,120.5,269.8,121.8z"/>
			</g>
			<g>
				<polygon class="st0" points="288.5,129.3 292.9,127.6 291,122.9 286.7,124.7 				"/>
				<polygon class="st0" points="292.9,143.2 297.4,142 296.1,137.2 291.6,138.5 				"/>
				<polygon class="st0" points="275.3,134.2 279.7,132.6 278,128.3 273.7,130.1 				"/>
				<polygon class="st0" points="279.2,146.7 283.8,145.5 282.6,141.1 278.1,142.5 				"/>
			</g>
			<g>
				<path class="st0" d="M295.8,158l4.6-0.7c-0.2-1.7-0.5-3.3-0.8-5l-4.6,0.8C295.3,154.8,295.6,156.4,295.8,158z"/>
				<path class="st0" d="M297.1,172.5l4.7-0.2c0-0.8,0-1.7-0.1-2.5l-0.2-2.5l-4.7,0.3l0.2,2.4C297,170.9,297,171.7,297.1,172.5z"/>
				<path class="st0" d="M281.9,160l4.6-0.7c-0.2-1.5-0.5-3-0.7-4.5l-4.6,0.8C281.4,157.1,281.7,158.5,281.9,160z"/>
				<path class="st0" d="M283,173l4.7-0.2c0-0.8,0-1.5-0.1-2.3l-0.2-2.3l-4.7,0.3l0.2,2.2C283,171.6,283,172.3,283,173z"/>
			</g>
		</g>
	</g>
</g>
<path class="st1" d="M109.6,154.5c0,0,49.8-56.4,105.1-10.8c0,0,3.8,11.8,2.4,31.8c-1.9,27.2-14.3,65.6-50,95
	C167,270.5,107.6,220.5,109.6,154.5z"/>
<g>
	<path class="st1" d="M237.3,168.2c0,0,0.6,35.5-23.3,31.2l1.6-10.3l2.3-14.7C217.8,174.3,218.5,163.3,237.3,168.2z"/>
	<line class="st1" x1="225.7" y1="183.4" x2="215.5" y2="189"/>
</g>
<path class="st1" d="M135.8,134.6c0,0-27.9-20-21.9-57c0,0-27.1,29.9,4.5,67.9L135.8,134.6z"/>
<path class="st1" d="M188.2,128c0,0,27.3-13.8,16.9-52.3c0,0,26.3,23.6,0.6,59.8L188.2,128z"/>
<path class="st2" d="M171,199"/>
<g>
	<path class="st3" d="M86.9,179.2c0,0,3.1,35.2,32.2,27.1l-3.1-9.9l-4.4-14.2C111.6,182.1,109.7,171.4,86.9,179.2z"/>
	<line class="st3" x1="102.9" y1="192.4" x2="116.1" y2="196.3"/>
</g>
</svg>
